<svg width="176" height="53" viewBox="0 0 176 53" fill="none" xmlns="http://www.w3.org/2000/svg">
<path d="M53.5856 38.175C52.5023 38.175 51.444 38.0333 50.4106 37.75C49.3773 37.4667 48.5523 37.1083 47.9356 36.675L49.1356 34.3C49.7356 34.7 50.4523 35.025 51.2856 35.275C52.1356 35.5083 52.969 35.625 53.7856 35.625C55.6523 35.625 56.5856 35.1333 56.5856 34.15C56.5856 33.6833 56.344 33.3583 55.8606 33.175C55.394 32.9917 54.6356 32.8167 53.5856 32.65C52.4856 32.4833 51.5856 32.2917 50.8856 32.075C50.2023 31.8583 49.6023 31.4833 49.0856 30.95C48.5856 30.4 48.3356 29.6417 48.3356 28.675C48.3356 27.4083 48.8606 26.4 49.9106 25.65C50.9773 24.8833 52.4106 24.5 54.2106 24.5C55.1273 24.5 56.044 24.6083 56.9606 24.825C57.8773 25.025 58.6273 25.3 59.2106 25.65L58.0106 28.025C56.8773 27.3583 55.6023 27.025 54.1856 27.025C53.269 27.025 52.569 27.1667 52.0856 27.45C51.619 27.7167 51.3856 28.075 51.3856 28.525C51.3856 29.025 51.6356 29.3833 52.1356 29.6C52.6523 29.8 53.444 29.9917 54.5106 30.175C55.5773 30.3417 56.4523 30.5333 57.1356 30.75C57.819 30.9667 58.4023 31.3333 58.8856 31.85C59.3856 32.3667 59.6356 33.1 59.6356 34.05C59.6356 35.3 59.094 36.3 58.0106 37.05C56.9273 37.8 55.4523 38.175 53.5856 38.175ZM74.1269 24.65V38H71.1519V36.275C70.6352 36.9083 69.9935 37.3833 69.2269 37.7C68.4769 38.0167 67.6435 38.175 66.7269 38.175C65.4269 38.175 64.2602 37.8917 63.2269 37.325C62.2102 36.7583 61.4102 35.9583 60.8269 34.925C60.2602 33.8917 59.9769 32.6917 59.9769 31.325C59.9769 29.9583 60.2602 28.7667 60.8269 27.75C61.4102 26.7167 62.2102 25.9167 63.2269 25.35C64.2602 24.7833 65.4269 24.5 66.7269 24.5C67.5935 24.5 68.3852 24.65 69.1019 24.95C69.8352 25.25 70.4685 25.6917 71.0019 26.275V24.65H74.1269ZM67.0769 35.5C68.2269 35.5 69.1769 35.1167 69.9269 34.35C70.6769 33.5833 71.0519 32.575 71.0519 31.325C71.0519 30.075 70.6769 29.0667 69.9269 28.3C69.1769 27.5333 68.2269 27.15 67.0769 27.15C65.9269 27.15 64.9769 27.5333 64.2269 28.3C63.4935 29.0667 63.1269 30.075 63.1269 31.325C63.1269 32.575 63.4935 33.5833 64.2269 34.35C64.9769 35.1167 65.9269 35.5 67.0769 35.5ZM81.9905 21.8C80.6739 21.8 80.0155 22.5167 80.0155 23.95V24.75H83.6905V27.25H80.0905V38H76.9655V23.9C76.9655 22.4833 77.3822 21.3583 78.2155 20.525C79.0489 19.6917 80.2322 19.275 81.7655 19.275C82.9489 19.275 83.8822 19.5167 84.5655 20L83.6905 22.35C83.1905 21.9833 82.6239 21.8 81.9905 21.8ZM90.6837 35.525C92.1337 35.525 93.342 35.0417 94.3087 34.075L95.9587 36C95.3754 36.7167 94.6254 37.2583 93.7087 37.625C92.792 37.9917 91.7587 38.175 90.6087 38.175C89.142 38.175 87.8504 37.8833 86.7337 37.3C85.617 36.7167 84.7504 35.9083 84.1337 34.875C83.5337 33.825 83.2337 32.6417 83.2337 31.325C83.2337 30.025 83.5254 28.8583 84.1087 27.825C84.7087 26.775 85.5254 25.9583 86.5587 25.375C87.6087 24.7917 88.792 24.5 90.1087 24.5C91.3587 24.5 92.492 24.775 93.5087 25.325C94.542 25.8583 95.3587 26.6333 95.9587 27.65C96.5587 28.65 96.8587 29.825 96.8587 31.175L86.6337 33.175C86.9504 33.9417 87.4587 34.525 88.1587 34.925C88.8587 35.325 89.7004 35.525 90.6837 35.525ZM90.1087 27C88.9587 27 88.0254 27.375 87.3087 28.125C86.6087 28.875 86.2587 29.8833 86.2587 31.15V31.175L93.8087 29.725C93.592 28.9083 93.1504 28.25 92.4837 27.75C91.8337 27.25 91.042 27 90.1087 27ZM106.111 37.275C105.744 37.575 105.294 37.8 104.761 37.95C104.244 38.1 103.694 38.175 103.111 38.175C101.644 38.175 100.511 37.7917 99.711 37.025C98.911 36.2583 98.511 35.1417 98.511 33.675V21.7H101.636V24.75H105.211V27.25H101.636V33.6C101.636 34.25 101.794 34.75 102.111 35.1C102.444 35.4333 102.903 35.6 103.486 35.6C104.186 35.6 104.769 35.4167 105.236 35.05L106.111 37.275ZM120.369 24.65V35.975C120.369 40.675 118.061 43.025 113.444 43.025C112.227 43.025 111.061 42.8583 109.944 42.525C108.844 42.2083 107.936 41.7417 107.219 41.125L108.619 38.775C109.186 39.2583 109.877 39.6417 110.694 39.925C111.511 40.2083 112.369 40.35 113.269 40.35C114.636 40.35 115.636 40.0167 116.269 39.35C116.919 38.7 117.244 37.6917 117.244 36.325V35.7C116.744 36.25 116.136 36.675 115.419 36.975C114.702 37.2583 113.927 37.4 113.094 37.4C111.311 37.4 109.902 36.9083 108.869 35.925C107.852 34.9417 107.344 33.4667 107.344 31.5V24.65H110.469V31.1C110.469 32.2833 110.736 33.175 111.269 33.775C111.819 34.3583 112.594 34.65 113.594 34.65C114.711 34.65 115.594 34.3083 116.244 33.625C116.911 32.9417 117.244 31.95 117.244 30.65V24.65H120.369ZM136.445 24.5C138.128 24.5 139.478 24.9917 140.495 25.975C141.511 26.9583 142.02 28.4167 142.02 30.35V38H138.895V30.75C138.895 29.5833 138.62 28.7083 138.07 28.125C137.52 27.525 136.736 27.225 135.72 27.225C134.57 27.225 133.661 27.575 132.995 28.275C132.328 28.9583 131.995 29.95 131.995 31.25V38H128.87V19.45H131.995V26.2C132.511 25.65 133.145 25.2333 133.895 24.95C134.661 24.65 135.511 24.5 136.445 24.5ZM157.659 24.65V38H154.684V36.3C154.184 36.9 153.559 37.3667 152.809 37.7C152.059 38.0167 151.251 38.175 150.384 38.175C148.601 38.175 147.192 37.6833 146.159 36.7C145.142 35.7 144.634 34.225 144.634 32.275V24.65H147.759V31.85C147.759 33.05 148.026 33.95 148.559 34.55C149.109 35.1333 149.884 35.425 150.884 35.425C152.001 35.425 152.884 35.0833 153.534 34.4C154.201 33.7 154.534 32.7 154.534 31.4V24.65H157.659ZM167.901 24.5C169.201 24.5 170.359 24.7833 171.376 25.35C172.409 25.9167 173.217 26.7167 173.801 27.75C174.384 28.7833 174.676 29.975 174.676 31.325C174.676 32.675 174.384 33.875 173.801 34.925C173.217 35.9583 172.409 36.7583 171.376 37.325C170.359 37.8917 169.201 38.175 167.901 38.175C166.984 38.175 166.142 38.0167 165.376 37.7C164.626 37.3833 163.992 36.9083 163.476 36.275V38H160.501V19.45H163.626V26.275C164.159 25.6917 164.784 25.25 165.501 24.95C166.234 24.65 167.034 24.5 167.901 24.5ZM167.551 35.5C168.701 35.5 169.642 35.1167 170.376 34.35C171.126 33.5833 171.501 32.575 171.501 31.325C171.501 30.075 171.126 29.0667 170.376 28.3C169.642 27.5333 168.701 27.15 167.551 27.15C166.801 27.15 166.126 27.325 165.526 27.675C164.926 28.0083 164.451 28.4917 164.101 29.125C163.751 29.7583 163.576 30.4917 163.576 31.325C163.576 32.1583 163.751 32.8917 164.101 33.525C164.451 34.1583 164.926 34.65 165.526 35C166.126 35.3333 166.801 35.5 167.551 35.5Z" fill="#015477"/>
<path d="M39.9231 17.4332C38.3772 17.4332 37.1189 16.1683 37.1189 14.6131C37.1189 13.0583 38.3772 11.7929 39.9231 11.7929C41.4694 11.7929 42.7272 13.0583 42.7272 14.6131C42.7272 16.1683 41.4694 17.4332 39.9231 17.4332ZM20.3623 39.7027C17.3927 39.7027 14.9769 37.273 14.9769 34.2865C14.9769 31.2999 17.3927 28.8702 20.3623 28.8702C23.3318 28.8702 25.7476 31.2999 25.7476 34.2865C25.7476 37.273 23.3318 39.7027 20.3623 39.7027ZM4.27281 20.925C4.27281 19.3698 5.53057 18.1048 7.07693 18.1048C8.62329 18.1048 9.88059 19.3698 9.88059 20.925C9.88059 22.4802 8.62329 23.7452 7.07693 23.7452C5.53057 23.7452 4.27281 22.4802 4.27281 20.925ZM20.8057 4.2973C22.3516 4.2973 23.6094 5.56228 23.6094 7.1175C23.6094 8.67272 22.3516 9.93769 20.8057 9.93769C19.2594 9.93769 18.0016 8.67272 18.0016 7.1175C18.0016 5.56228 19.2594 4.2973 20.8057 4.2973ZM39.9231 7.49555C36.0211 7.49555 32.8461 10.6887 32.8461 14.6131C32.8461 15.7939 33.138 16.9059 33.6462 17.8871L25.5031 26.0773C24.0119 25.1298 22.2523 24.5725 20.3623 24.5725C18.4717 24.5725 16.7121 25.1298 15.2214 26.0778L13.3543 24.1976C13.8621 23.2169 14.1539 22.1054 14.1539 20.925C14.1539 19.7441 13.8621 18.6321 13.3538 17.6509L17.5499 13.4304C18.5255 13.9415 19.6316 14.235 20.8057 14.235C24.7077 14.235 27.8826 11.0423 27.8826 7.1175C27.8826 3.19271 24.7077 0 20.8057 0C16.9033 0 13.7283 3.19271 13.7283 7.1175C13.7283 8.29836 14.0206 9.41035 14.5284 10.3915L10.3323 14.6117C9.35671 14.101 8.2506 13.8075 7.07693 13.8075C3.17451 13.8075 0 17.0002 0 20.925C0 24.8493 3.17451 28.0425 7.07693 28.0425C8.2506 28.0425 9.35579 27.749 10.3314 27.2383L12.1994 29.1175C11.2574 30.6163 10.7041 32.3855 10.7041 34.2865C10.7041 39.6426 15.0366 44 20.3623 44C25.6879 44 30.0209 39.6426 30.0209 34.2865C30.0209 32.3851 29.4667 30.6154 28.5246 29.1161L36.6677 20.9264C37.6433 21.4371 38.7494 21.7305 39.9231 21.7305C43.8255 21.7305 47 18.5378 47 14.6131C47 10.6887 43.8255 7.49555 39.9231 7.49555Z" fill="#015477"/>
</svg>
