<svg width="858" height="41" viewBox="0 0 858 41" fill="none" xmlns="http://www.w3.org/2000/svg">
<path d="M9.78455 5.10156V15H8.26697V6.60547H8.21229L5.84705 8.15039V6.71484L8.30799 5.10156H9.78455ZM14.4877 15.0957C13.9545 15.0957 13.5033 14.6582 13.517 14.125C13.5033 13.5918 13.9545 13.1543 14.4877 13.1543C15.0072 13.1543 15.4584 13.5918 15.4584 14.125C15.4584 14.6582 15.0072 15.0957 14.4877 15.0957ZM31.582 3.91211V16.1621H30.2832V3.91211H31.582ZM21.5195 12.8262C22.5244 12.8193 23.6797 12.8125 24.8828 12.7715V11.5547C23.4473 11.3701 22.5176 10.5293 22.5312 9.32617C22.5176 7.94531 23.7207 7.0293 25.498 7.0293C27.2891 7.0293 28.5195 7.94531 28.5195 9.32617C28.5195 10.5156 27.5898 11.3496 26.168 11.541V12.7305C27.3027 12.6826 28.4512 12.5938 29.5312 12.457L29.627 13.4277C26.9062 13.8789 23.9395 13.9062 21.6973 13.9062L21.5195 12.8262ZM29.2578 5.375V6.41406H21.7793V5.375H24.8828V3.93945H26.1816V5.375H29.2578ZM25.498 8.04102C24.4727 8.04102 23.748 8.54688 23.7617 9.32617C23.748 10.1055 24.4727 10.584 25.498 10.584C26.5508 10.584 27.2754 10.1055 27.2754 9.32617C27.2754 8.54688 26.5508 8.04102 25.498 8.04102ZM37.8027 7.0293C37.7891 9.20312 39.0469 11.418 40.8789 12.3066L40.0723 13.3457C38.7393 12.6553 37.707 11.2812 37.1738 9.64062C36.6201 11.3906 35.5469 12.8535 34.1523 13.5781L33.3457 12.5254C35.2324 11.623 36.5039 9.27148 36.5039 7.0293V4.9375H37.8027V7.0293ZM43.0938 3.91211V8.79297H45.0625V9.90039H43.0938V16.1621H41.7949V3.91211H43.0938ZM55.8633 3.91211V11.1992H54.5645V8.0957H52.2812V7.0293H54.5645V3.91211H55.8633ZM51.7617 11.541C54.332 11.541 55.9043 12.3887 55.9043 13.8516C55.9043 15.3145 54.332 16.1484 51.7617 16.1621C49.1914 16.1484 47.6055 15.3145 47.6191 13.8516C47.6055 12.3887 49.1914 11.541 51.7617 11.541ZM51.7617 12.5527C49.9707 12.5527 48.9043 13.0176 48.9043 13.8516C48.9043 14.6719 49.9707 15.1504 51.7617 15.1367C53.5527 15.1504 54.6191 14.6719 54.6191 13.8516C54.6191 13.0176 53.5527 12.5527 51.7617 12.5527ZM50.0391 6.07227C50.0391 7.63086 51.1465 9.13477 52.9922 9.76367L52.3223 10.7891C50.9482 10.3105 49.9365 9.33301 49.4102 8.12305C48.8701 9.49707 47.7969 10.5977 46.334 11.1309L45.6504 10.0918C47.5508 9.43555 48.7129 7.78125 48.7129 6.08594V5.8125H46.0605V4.75977H52.6641V5.8125H50.0391V6.07227ZM68.9609 13.5645V14.6445H57.75V13.5645H62.6855V11.0488H59.0352V4.74609H60.334V6.85156H66.3496V4.74609H67.6348V11.0488H63.9707V13.5645H68.9609ZM60.334 9.99609H66.3496V7.9043H60.334V9.99609ZM83.4258 3.91211V10.4883H82.127V3.91211H83.4258ZM76.6855 11.0762V12.457H82.1406V11.0762H83.4258V16.0117H75.4141V11.0762H76.6855ZM76.6855 14.9453H82.1406V13.4824H76.6855V14.9453ZM76.7812 4.47266C78.6543 4.47266 80.0352 5.63477 80.0352 7.31641C80.0352 8.99805 78.6543 10.1602 76.7812 10.1465C74.9082 10.1602 73.5137 8.99805 73.5137 7.31641C73.5137 5.63477 74.9082 4.47266 76.7812 4.47266ZM76.7812 5.56641C75.6191 5.55273 74.7852 6.27734 74.7852 7.31641C74.7852 8.36914 75.6191 9.08008 76.7812 9.08008C77.9297 9.08008 78.7637 8.36914 78.7637 7.31641C78.7637 6.27734 77.9297 5.55273 76.7812 5.56641ZM91.2051 4.65039V8.21875H87.1582V9.91406C89.291 9.9209 90.4531 9.87305 91.834 9.61328L91.957 10.666C90.4668 10.9258 89.209 10.9668 86.7617 10.9668H85.873V7.23438H89.9062V5.68945H85.8594V4.65039H91.2051ZM95.5801 3.92578V11.459H94.2812V9.29883H91.9844V8.25977H94.2812V6.74219H91.9844V5.70312H94.2812V3.92578H95.5801ZM95.5801 12.0742V16.1758H94.2812V13.127H87.2676V12.0742H95.5801Z" fill="#399AF9"/>
<path d="M0 33H97.5H199" stroke="#399AF9" stroke-opacity="0.8" stroke-width="15"/>
<path d="M225.027 15V13.9062L228.458 10.4473C229.538 9.3125 230.085 8.68359 230.085 7.82227C230.085 6.85156 229.292 6.22266 228.253 6.22266C227.16 6.22266 226.449 6.91992 226.449 7.97266H225.027C225.013 6.16797 226.394 4.96484 228.281 4.96484C230.195 4.96484 231.507 6.16797 231.521 7.78125C231.507 8.88867 230.988 9.76367 229.128 11.5957L227.119 13.6328V13.7148H231.685V15H225.027ZM234.488 15.0957C233.954 15.0957 233.503 14.6582 233.517 14.125C233.503 13.5918 233.954 13.1543 234.488 13.1543C235.007 13.1543 235.458 13.5918 235.458 14.125C235.458 14.6582 235.007 15.0957 234.488 15.0957ZM251.404 5.08789V6.40039C251.391 7.94531 251.391 9.55859 250.953 11.8965L249.682 11.7598C250.105 9.54492 250.105 7.9043 250.105 6.40039V6.14062H242.6V5.08789H251.404ZM252.621 13.4277V14.5078H241.451V13.4277H244.09V9.46289H245.389V13.4277H247.152V9.46289H248.424V13.4277H252.621ZM264.721 9.75V10.8027H261.836V12.2246H263.354V16.1621H262.041V13.25H254.795V12.2246H256.408V10.8027H253.551V9.75H264.721ZM259.129 4.18555C261.809 4.17188 263.504 5.07422 263.504 6.55078C263.504 8.02734 261.809 8.92969 259.129 8.91602C256.449 8.92969 254.754 8.02734 254.754 6.55078C254.754 5.07422 256.449 4.17188 259.129 4.18555ZM259.129 5.21094C257.242 5.19727 256.08 5.70312 256.094 6.55078C256.08 7.41211 257.242 7.9043 259.129 7.9043C261.002 7.9043 262.164 7.41211 262.164 6.55078C262.164 5.70312 261.002 5.19727 259.129 5.21094ZM257.707 12.2246H260.564V10.8027H257.707V12.2246ZM269.916 7.52148C269.916 9.46289 271.188 11.623 273.047 12.498L272.309 13.5098C270.935 12.8467 269.848 11.4658 269.301 9.85938C268.733 11.6162 267.585 13.127 266.184 13.8242L265.418 12.7988C267.277 11.9102 268.631 9.59961 268.631 7.52148V6.22266H265.869V5.14258H272.582V6.22266H269.916V7.52148ZM275.193 3.91211V8.76562H277.162V9.85938H275.193V16.1621H273.895V3.91211H275.193ZM288.961 13.6055V14.6992H277.75V13.6055H280.812V11.4453H279.117V7.54883H286.309V5.83984H279.09V4.77344H287.594V8.60156H280.402V10.3789H287.881V11.4453H286.021V13.6055H288.961ZM282.07 13.6055H284.75V11.4453H282.07V13.6055ZM303.754 3.91211V16.1621H302.51V9.80469H300.992V15.5742H299.775V4.24023H300.992V8.75195H302.51V3.91211H303.754ZM298.559 5.4707C298.545 8.69727 297.479 11.582 293.979 13.5645L293.227 12.6621C295.947 11.124 297.096 9.03906 297.301 6.53711H293.746V5.4707H298.559ZM316.578 13.5508V14.6309H305.367V13.5508H308.047V10.3516C307.042 9.79785 306.434 8.91602 306.434 7.82227C306.434 5.89453 308.32 4.62305 310.945 4.62305C313.584 4.62305 315.471 5.89453 315.471 7.82227C315.471 8.90234 314.883 9.77051 313.898 10.3242V13.5508H316.578ZM310.945 5.66211C309.018 5.66211 307.691 6.49609 307.691 7.82227C307.691 9.13477 309.018 9.99609 310.945 9.99609C312.859 9.99609 314.213 9.13477 314.213 7.82227C314.213 6.49609 312.859 5.66211 310.945 5.66211ZM309.332 13.5508H312.586V10.8164C312.087 10.9463 311.533 11.0078 310.945 11.0078C310.371 11.0078 309.824 10.9463 309.332 10.8301V13.5508Z" fill="#399AF9"/>
<path d="M220 33H317.5H419" stroke="#399AF9" stroke-opacity="0.8" stroke-width="15"/>
<path d="M448.335 15.1367C446.285 15.1367 444.822 14.0293 444.767 12.416H446.298C446.353 13.291 447.214 13.8379 448.322 13.8379C449.511 13.8379 450.386 13.1816 450.386 12.2246C450.386 11.2539 449.566 10.543 448.158 10.543H447.31V9.3125H448.158C449.279 9.3125 450.072 8.68359 450.072 7.74023C450.072 6.83789 449.402 6.22266 448.349 6.22266C447.351 6.22266 446.476 6.76953 446.435 7.67188H444.986C445.027 6.05859 446.517 4.96484 448.363 4.96484C450.304 4.96484 451.535 6.19531 451.521 7.6582C451.535 8.7793 450.837 9.59961 449.771 9.85938V9.92773C451.124 10.1191 451.904 11.0215 451.904 12.2793C451.904 13.9336 450.386 15.1367 448.335 15.1367ZM454.488 15.0957C453.954 15.0957 453.503 14.6582 453.517 14.125C453.503 13.5918 453.954 13.1543 454.488 13.1543C455.007 13.1543 455.458 13.5918 455.458 14.125C455.458 14.6582 455.007 15.0957 454.488 15.0957ZM465.184 7.26172C465.184 9.2168 466.004 11.3086 467.645 12.3066L466.92 13.3047C465.771 12.6143 464.992 11.3906 464.582 9.96875C464.124 11.5273 463.283 12.8535 462.094 13.5781L461.287 12.6074C463.023 11.5684 463.926 9.4082 463.926 7.31641V5.0332H465.184V7.26172ZM471.992 3.91211V16.1621H470.748V3.91211H471.992ZM469.449 4.14453V15.5605H468.219V9.29883H466.318V8.21875H468.219V4.14453H469.449ZM484.748 11.1172V12.1426H479.744V16.1621H478.473V12.1426H473.537V11.1172H484.748ZM476.217 4.4043V6.00391H482.041V4.4043H483.34V9.72266H474.932V4.4043H476.217ZM476.217 8.68359H482.041V7.04297H476.217V8.68359ZM489.902 7.0293C489.889 9.20312 491.146 11.418 492.979 12.3066L492.172 13.3457C490.839 12.6553 489.807 11.2812 489.273 9.64062C488.72 11.3906 487.646 12.8535 486.252 13.5781L485.445 12.5254C487.332 11.623 488.604 9.27148 488.604 7.0293V4.9375H489.902V7.0293ZM495.193 3.91211V8.79297H497.162V9.90039H495.193V16.1621H493.895V3.91211H495.193ZM507.375 3.91211V7.23438H509.152V8.32812H507.375V11.7734H506.076V3.91211H507.375ZM503.465 11.8691C505.967 11.8691 507.512 12.6621 507.512 14.0156C507.512 15.3418 505.967 16.1484 503.465 16.1348C500.936 16.1484 499.391 15.3418 499.404 14.0156C499.391 12.6621 500.936 11.8691 503.465 11.8691ZM503.465 12.8672C501.701 12.8672 500.676 13.2637 500.689 14.0156C500.676 14.7266 501.701 15.1504 503.465 15.1504C505.201 15.1504 506.227 14.7266 506.227 14.0156C506.227 13.2637 505.201 12.8672 503.465 12.8672ZM505.064 5.22461V6.25H497.764V5.22461H500.771V3.81641H502.07V5.22461H505.064ZM501.414 6.81055C503.178 6.81055 504.381 7.68555 504.381 8.99805C504.381 10.3105 503.178 11.1719 501.414 11.1582C499.623 11.1719 498.434 10.3105 498.434 8.99805C498.434 7.68555 499.623 6.81055 501.414 6.81055ZM501.414 7.78125C500.375 7.78125 499.678 8.24609 499.691 8.99805C499.678 9.72266 500.375 10.1738 501.414 10.1738C502.453 10.1738 503.15 9.72266 503.164 8.99805C503.15 8.24609 502.453 7.78125 501.414 7.78125ZM523.426 3.91211V10.4883H522.127V3.91211H523.426ZM516.686 11.0762V12.457H522.141V11.0762H523.426V16.0117H515.414V11.0762H516.686ZM516.686 14.9453H522.141V13.4824H516.686V14.9453ZM516.781 4.47266C518.654 4.47266 520.035 5.63477 520.035 7.31641C520.035 8.99805 518.654 10.1602 516.781 10.1465C514.908 10.1602 513.514 8.99805 513.514 7.31641C513.514 5.63477 514.908 4.47266 516.781 4.47266ZM516.781 5.56641C515.619 5.55273 514.785 6.27734 514.785 7.31641C514.785 8.36914 515.619 9.08008 516.781 9.08008C517.93 9.08008 518.764 8.36914 518.764 7.31641C518.764 6.27734 517.93 5.55273 516.781 5.56641ZM531.205 4.65039V8.21875H527.158V9.91406C529.291 9.9209 530.453 9.87305 531.834 9.61328L531.957 10.666C530.467 10.9258 529.209 10.9668 526.762 10.9668H525.873V7.23438H529.906V5.68945H525.859V4.65039H531.205ZM535.58 3.92578V11.459H534.281V9.29883H531.984V8.25977H534.281V6.74219H531.984V5.70312H534.281V3.92578H535.58ZM535.58 12.0742V16.1758H534.281V13.127H527.268V12.0742H535.58Z" fill="#D9D9D9"/>
<path d="M440 33H539H638" stroke="#D9D9D9" stroke-width="15"/>
<path d="M664.494 13.0723V11.8555L668.869 5.10156H670.728V11.8008H672.081V13.0723H670.728V15H669.306V13.0723H664.494ZM666.079 11.8008H669.306V6.89258H669.197L666.079 11.7188V11.8008ZM674.488 15.0957C673.954 15.0957 673.503 14.6582 673.517 14.125C673.503 13.5918 673.954 13.1543 674.488 13.1543C675.007 13.1543 675.458 13.5918 675.458 14.125C675.458 14.6582 675.007 15.0957 674.488 15.0957ZM685.717 7.52148C685.717 9.46289 686.988 11.623 688.848 12.498L688.109 13.5098C686.735 12.8467 685.648 11.4658 685.102 9.85938C684.534 11.6162 683.386 13.127 681.984 13.8242L681.219 12.7988C683.078 11.9102 684.432 9.59961 684.432 7.52148V6.22266H681.67V5.14258H688.383V6.22266H685.717V7.52148ZM690.994 3.91211V8.76562H692.963V9.85938H690.994V16.1621H689.695V3.91211H690.994ZM704.762 13.6055V14.6992H693.551V13.6055H696.613V11.4453H694.918V7.54883H702.109V5.83984H694.891V4.77344H703.395V8.60156H696.203V10.3789H703.682V11.4453H701.822V13.6055H704.762ZM697.871 13.6055H700.551V11.4453H697.871V13.6055ZM715.344 4.99219C715.33 6.61914 717.326 8.15039 719.732 8.46484L719.227 9.53125C717.224 9.20996 715.46 8.1709 714.674 6.72852C713.867 8.17773 712.11 9.20996 710.121 9.53125L709.602 8.46484C712.008 8.15039 713.977 6.63281 713.99 4.99219V4.32227H715.344V4.99219ZM720.238 10.7344V11.8008H715.262V16.1621H713.99V11.8008H709.068V10.7344H720.238ZM731.381 3.91211V11.1992H730.082V8.0957H727.799V7.0293H730.082V3.91211H731.381ZM727.279 11.541C729.85 11.541 731.422 12.3887 731.422 13.8516C731.422 15.3145 729.85 16.1484 727.279 16.1621C724.709 16.1484 723.123 15.3145 723.137 13.8516C723.123 12.3887 724.709 11.541 727.279 11.541ZM727.279 12.5527C725.488 12.5527 724.422 13.0176 724.422 13.8516C724.422 14.6719 725.488 15.1504 727.279 15.1367C729.07 15.1504 730.137 14.6719 730.137 13.8516C730.137 13.0176 729.07 12.5527 727.279 12.5527ZM725.557 6.07227C725.557 7.63086 726.664 9.13477 728.51 9.76367L727.84 10.7891C726.466 10.3105 725.454 9.33301 724.928 8.12305C724.388 9.49707 723.314 10.5977 721.852 11.1309L721.168 10.0918C723.068 9.43555 724.23 7.78125 724.23 6.08594V5.8125H721.578V4.75977H728.182V5.8125H725.557V6.07227ZM742.811 3.91211V8.875H744.779V9.95508H742.811V16.1621H741.525V3.91211H742.811ZM740.459 5.82617V6.89258H733.199V5.82617H736.221V4.07617H737.52V5.82617H740.459ZM736.877 7.79492C738.627 7.79492 739.912 8.9707 739.926 10.6387C739.912 12.3203 738.627 13.4824 736.877 13.4961C735.113 13.4824 733.828 12.3203 733.828 10.6387C733.828 8.9707 735.113 7.79492 736.877 7.79492ZM736.877 8.86133C735.838 8.86133 735.059 9.58594 735.072 10.6387C735.059 11.7051 735.838 12.416 736.877 12.4023C737.916 12.416 738.682 11.7051 738.682 10.6387C738.682 9.58594 737.916 8.86133 736.877 8.86133ZM755.553 3.91211V16.1621H754.24V3.91211H755.553ZM751.902 5.22461C751.902 8.80664 750.371 11.9238 746.174 13.9336L745.49 12.8809C748.751 11.3291 750.337 9.12109 750.59 6.26367H746.078V5.22461H751.902Z" fill="#D9D9D9"/>
<path d="M660 33H759H858" stroke="#D9D9D9" stroke-width="15"/>
</svg>
