<svg width="20" height="20" viewBox="0 0 20 20" fill="none" xmlns="http://www.w3.org/2000/svg">
<mask id="mask0_41_992" style="mask-type:alpha" maskUnits="userSpaceOnUse" x="0" y="0" width="20" height="20">
<rect width="20" height="20" fill="#D9D9D9"/>
</mask>
<g mask="url(#mask0_41_992)">
<path d="M10.032 16.25C8.28712 16.25 6.80927 15.6447 5.59844 14.434C4.38747 13.2233 3.78198 11.7457 3.78198 10.0012C3.78198 8.25681 4.38747 6.77882 5.59844 5.56729C6.80927 4.35576 8.28712 3.75 10.032 3.75C11.0063 3.75 11.9283 3.9666 12.798 4.39979C13.6676 4.83312 14.3909 5.44451 14.9678 6.23396V3.75H16.2178V8.84604H11.1218V7.59625H14.4134C13.9743 6.79167 13.3652 6.15785 12.5864 5.69479C11.8076 5.2316 10.9561 5 10.032 5C8.64309 5 7.46254 5.48611 6.49032 6.45833C5.51809 7.43056 5.03198 8.61111 5.03198 10C5.03198 11.3889 5.51809 12.5694 6.49032 13.5417C7.46254 14.5139 8.64309 15 10.032 15C11.1014 15 12.0667 14.6944 12.9278 14.0833C13.7889 13.4722 14.3931 12.6667 14.7403 11.6667H16.0576C15.6794 13.0267 14.9345 14.1306 13.8228 14.9783C12.7111 15.8261 11.4475 16.25 10.032 16.25Z" fill="#1C1B1F"/>
</g>
</svg>
